<svg width="192" height="68" viewBox="0 0 192 68" fill="none" xmlns="http://www.w3.org/2000/svg">
<g filter="url(#filter0_biiii_1243_17787)">
<circle cx="116" cy="34" r="34" fill="url(#paint0_linear_1243_17787)"/>
</g>
<path d="M16.155 46.3635C23.85 46.3635 27.855 42.2685 27.855 36.7785C27.855 32.8185 25.38 29.6685 21.87 29.0385C24.03 28.3185 26.055 26.2935 26.055 22.3785C26.055 17.2035 22.14 14.4135 15.345 14.4135H3.015V46.3635H16.155ZM9.54 19.9935H15.345C17.82 19.9935 19.485 21.2535 19.485 23.6835C19.485 26.1585 17.82 27.3735 15.345 27.3735H9.54V19.9935ZM9.54 32.3235H16.245C19.305 32.3235 21.285 33.9885 21.285 36.6435C21.285 39.1635 19.305 40.7835 16.155 40.7835H9.54V32.3235ZM38.3994 19.9485C40.1994 19.9485 41.5944 18.5535 41.5944 16.7535C41.5944 14.9535 40.1994 13.5585 38.3994 13.5585C36.5994 13.5585 35.2044 14.9535 35.2044 16.7535C35.2044 18.5535 36.5994 19.9485 38.3994 19.9485ZM47.5794 19.9485C49.3794 19.9485 50.7744 18.5535 50.7744 16.7535C50.7744 14.9535 49.3794 13.5585 47.5794 13.5585C45.7794 13.5585 44.3844 14.9535 44.3844 16.7535C44.3844 18.5535 45.7794 19.9485 47.5794 19.9485ZM42.9894 22.3335C35.8794 22.3335 30.8394 27.5985 30.8394 34.6635C30.8394 41.9535 36.0594 46.8135 43.3494 46.8135C48.8394 46.8135 53.3844 43.4385 54.6444 38.9835L49.0644 38.3985C48.1194 40.2435 46.1844 41.5485 43.3944 41.5485C40.1094 41.5485 37.5444 39.4785 37.2294 36.5985H55.0944C55.4094 27.1485 50.1444 22.3335 42.9894 22.3335ZM42.9894 27.4635C46.1844 27.4635 48.4794 29.3985 48.6144 32.1435H37.1844C37.4094 29.3985 39.7944 27.4635 42.9894 27.4635ZM73.5237 22.3785C69.6087 22.3785 66.5037 24.1335 65.3337 26.9235V26.7885L64.2087 22.8285H58.9437V56.7135H65.3337V42.8985C67.0887 45.5085 70.1937 46.8585 73.1637 46.8585C80.4537 46.8585 84.8637 41.6385 84.8637 34.6635C84.8637 28.0035 80.6787 22.3785 73.5237 22.3785ZM71.8587 41.0985C68.0787 41.0985 65.3787 38.3535 65.3787 34.6185C65.3787 30.8385 68.0787 28.1385 71.8587 28.1385C75.6837 28.1385 78.4287 30.7935 78.4287 34.6185C78.4287 38.3985 75.6837 41.0985 71.8587 41.0985ZM100.394 46.8585C103.139 46.8585 105.614 46.0935 107.504 44.6085V38.4885C105.794 40.1085 103.589 41.0985 101.024 41.0985C97.0636 41.0985 94.1386 38.3085 94.1386 34.6185C94.1386 30.9285 97.0636 28.1385 101.024 28.1385C103.589 28.1385 105.794 29.0835 107.504 30.7035V24.5835C105.614 23.0985 103.139 22.3335 100.394 22.3335C92.6536 22.3335 87.7486 27.5085 87.7486 34.5735C87.7486 41.7285 92.6536 46.8585 100.394 46.8585ZM122.609 46.3635V28.5435H129.179V22.8285H109.739V28.5435H116.264V46.3635H122.609ZM143.863 33.8535L154.483 22.8285H146.968L138.058 32.1885C138.283 30.4785 138.283 27.9135 138.283 22.8285H131.893V46.3635H138.283C138.283 41.2335 138.238 37.9485 137.968 35.4285L147.013 46.3635H154.573L143.863 33.8535ZM173.284 26.4285V26.2935C171.529 23.6835 168.424 22.3335 165.454 22.3335C158.164 22.3335 153.754 27.5535 153.754 34.5285C153.754 41.2335 157.939 46.8135 165.094 46.8135C169.009 46.8135 172.114 45.1035 173.284 42.3135V46.3635H179.719V22.8285H174.319L173.284 26.4285ZM166.759 41.0985C162.934 41.0985 160.189 38.3985 160.189 34.5735C160.189 30.7935 162.934 28.1385 166.759 28.1385C170.539 28.1385 173.239 30.8385 173.239 34.5735C173.239 38.3535 170.539 41.0985 166.759 41.0985Z" fill="#37E45E"/>
<line x1="189.894" y1="4.86353" x2="189.894" y2="61.8635" stroke="#34C153" stroke-width="3" stroke-linecap="round"/>
<defs>
<filter id="filter0_biiii_1243_17787" x="52.0352" y="-29.9648" width="127.93" height="127.93" filterUnits="userSpaceOnUse" color-interpolation-filters="sRGB">
<feFlood flood-opacity="0" result="BackgroundImageFix"/>
<feGaussianBlur in="BackgroundImageFix" stdDeviation="14.9824"/>
<feComposite in2="SourceAlpha" operator="in" result="effect1_backgroundBlur_1243_17787"/>
<feBlend mode="normal" in="SourceGraphic" in2="effect1_backgroundBlur_1243_17787" result="shape"/>
<feColorMatrix in="SourceAlpha" type="matrix" values="0 0 0 0 0 0 0 0 0 0 0 0 0 0 0 0 0 0 127 0" result="hardAlpha"/>
<feOffset dx="14.2689" dy="14.2689"/>
<feGaussianBlur stdDeviation="16.4093"/>
<feComposite in2="hardAlpha" operator="arithmetic" k2="-1" k3="1"/>
<feColorMatrix type="matrix" values="0 0 0 0 0.0588235 0 0 0 0 0.996078 0 0 0 0 0.266667 0 0 0 0.18 0"/>
<feBlend mode="normal" in2="shape" result="effect2_innerShadow_1243_17787"/>
<feColorMatrix in="SourceAlpha" type="matrix" values="0 0 0 0 0 0 0 0 0 0 0 0 0 0 0 0 0 0 127 0" result="hardAlpha"/>
<feMorphology radius="2.85379" operator="erode" in="SourceAlpha" result="effect3_innerShadow_1243_17787"/>
<feOffset dy="2.85379"/>
<feGaussianBlur stdDeviation="4.28068"/>
<feComposite in2="hardAlpha" operator="arithmetic" k2="-1" k3="1"/>
<feColorMatrix type="matrix" values="0 0 0 0 1 0 0 0 0 1 0 0 0 0 1 0 0 0 0.05 0"/>
<feBlend mode="normal" in2="effect2_innerShadow_1243_17787" result="effect3_innerShadow_1243_17787"/>
<feColorMatrix in="SourceAlpha" type="matrix" values="0 0 0 0 0 0 0 0 0 0 0 0 0 0 0 0 0 0 127 0" result="hardAlpha"/>
<feOffset dy="1.42689"/>
<feComposite in2="hardAlpha" operator="arithmetic" k2="-1" k3="1"/>
<feColorMatrix type="matrix" values="0 0 0 0 1 0 0 0 0 1 0 0 0 0 1 0 0 0 0.05 0"/>
<feBlend mode="normal" in2="effect3_innerShadow_1243_17787" result="effect4_innerShadow_1243_17787"/>
<feColorMatrix in="SourceAlpha" type="matrix" values="0 0 0 0 0 0 0 0 0 0 0 0 0 0 0 0 0 0 127 0" result="hardAlpha"/>
<feOffset dy="-14.2689"/>
<feGaussianBlur stdDeviation="7.13447"/>
<feComposite in2="hardAlpha" operator="arithmetic" k2="-1" k3="1"/>
<feColorMatrix type="matrix" values="0 0 0 0 0.0588235 0 0 0 0 0.996078 0 0 0 0 0.266667 0 0 0 0.4 0"/>
<feBlend mode="overlay" in2="effect4_innerShadow_1243_17787" result="effect5_innerShadow_1243_17787"/>
</filter>
<linearGradient id="paint0_linear_1243_17787" x1="116" y1="134.603" x2="71.1992" y2="15.8524" gradientUnits="userSpaceOnUse">
<stop stop-color="#0FFE44" stop-opacity="0.01"/>
<stop offset="1" stop-color="#0FFE44" stop-opacity="0.12"/>
</linearGradient>
</defs>
</svg>
