<svg width="16" height="16" viewBox="0 0 16 16" fill="none" xmlns="http://www.w3.org/2000/svg">
<path d="M2.05082 4.98859L4.90951 7.03048C5.05826 7.13673 5.13264 7.18985 5.21048 7.20209C5.27897 7.21286 5.34912 7.20201 5.41115 7.17104C5.48165 7.13584 5.53649 7.06272 5.64617 6.91648L6.25024 6.11105C6.28125 6.0697 6.29676 6.04902 6.31499 6.03118C6.33117 6.01534 6.34893 6.0012 6.36798 5.98896C6.38944 5.97518 6.41306 5.96468 6.4603 5.94368L9.03936 4.79743C9.14627 4.74992 9.19973 4.72616 9.24003 4.68906C9.27569 4.65624 9.30376 4.61604 9.32228 4.57127C9.34323 4.52064 9.34712 4.46228 9.35491 4.34554L9.54375 1.51298M9.00016 9.00004L10.7442 9.74747C10.9465 9.83419 11.0477 9.87755 11.1013 9.94957C11.1483 10.0128 11.1714 10.0906 11.1666 10.1692C11.161 10.2588 11.1 10.3504 10.9778 10.5335L10.1585 11.7626C10.1006 11.8494 10.0717 11.8928 10.0334 11.9242C9.99957 11.9521 9.96056 11.9729 9.91863 11.9857C9.87127 12.0001 9.81909 12.0001 9.71473 12.0001H8.38457C8.24634 12.0001 8.17722 12.0001 8.11841 11.9769C8.06648 11.9565 8.02051 11.9234 7.98471 11.8806C7.94417 11.8321 7.92232 11.7665 7.8786 11.6354L7.40335 10.2096C7.37757 10.1323 7.36468 10.0936 7.36129 10.0543C7.35828 10.0194 7.36077 9.98434 7.36868 9.95027C7.3776 9.91183 7.39583 9.87537 7.43229 9.80245L7.7933 9.08043C7.86665 8.93373 7.90332 8.86039 7.95981 8.81485C8.00959 8.77472 8.06987 8.74975 8.13344 8.74293C8.20559 8.73518 8.28339 8.76112 8.43898 8.81298L9.00016 9.00004ZM14.6668 8.00004C14.6668 11.6819 11.6821 14.6667 8.00016 14.6667C4.31826 14.6667 1.3335 11.6819 1.3335 8.00004C1.3335 4.31814 4.31826 1.33337 8.00016 1.33337C11.6821 1.33337 14.6668 4.31814 14.6668 8.00004Z" stroke="#535353" stroke-linecap="round" stroke-linejoin="round"/>
</svg>
