<svg width="198" height="50" viewBox="0 0 198 50" fill="none" xmlns="http://www.w3.org/2000/svg">
<path d="M38.0026 7.56949H42.9564V22.7856C42.9564 24.4941 42.5484 25.989 41.7323 27.2703C40.9238 28.5517 39.7912 29.5508 38.3344 30.2678C36.8776 30.9771 35.1806 31.3318 33.2433 31.3318C31.2984 31.3318 29.5975 30.9771 28.1407 30.2678C26.684 29.5508 25.5513 28.5517 24.7429 27.2703C23.9344 25.989 23.5301 24.4941 23.5301 22.7856V7.56949H28.484V22.3623C28.484 23.2547 28.6784 24.0479 29.0674 24.7419C29.464 25.436 30.0208 25.9814 30.7378 26.378C31.4547 26.7746 32.2899 26.9729 33.2433 26.9729C34.2043 26.9729 35.0395 26.7746 35.7488 26.378C36.4657 25.9814 37.0187 25.436 37.4077 24.7419C37.8043 24.0479 38.0026 23.2547 38.0026 22.3623V7.56949ZM46.9406 37.5898V13.4271H51.7457V16.3788H51.9631C52.1766 15.9059 52.4855 15.4254 52.8898 14.9373C53.3016 14.4415 53.8355 14.0297 54.4915 13.7017C55.155 13.3661 55.9788 13.1983 56.9627 13.1983C58.244 13.1983 59.4262 13.5339 60.5093 14.2051C61.5923 14.8686 62.458 15.8716 63.1063 17.214C63.7546 18.5487 64.0788 20.2229 64.0788 22.2364C64.0788 24.1966 63.7622 25.8517 63.1292 27.2017C62.5038 28.5441 61.6495 29.5623 60.5665 30.2564C59.4911 30.9428 58.286 31.286 56.9512 31.286C56.0055 31.286 55.2008 31.1297 54.5372 30.8169C53.8813 30.5042 53.3436 30.1114 52.9241 29.6386C52.5046 29.1581 52.1843 28.6737 51.9631 28.1856H51.8144V37.5898H46.9406ZM51.7114 22.2136C51.7114 23.2585 51.8563 24.1699 52.1461 24.9479C52.436 25.7258 52.8555 26.3322 53.4046 26.7669C53.9538 27.1941 54.6211 27.4076 55.4067 27.4076C56.1999 27.4076 56.8711 27.1903 57.4203 26.7555C57.9694 26.3131 58.3851 25.703 58.6673 24.925C58.9572 24.1394 59.1021 23.2356 59.1021 22.2136C59.1021 21.1992 58.961 20.3068 58.6788 19.5364C58.3966 18.7661 57.9809 18.1636 57.4317 17.7288C56.8826 17.2941 56.2076 17.0767 55.4067 17.0767C54.6135 17.0767 53.9423 17.2864 53.3932 17.7059C52.8516 18.1254 52.436 18.7203 52.1461 19.4907C51.8563 20.261 51.7114 21.1686 51.7114 22.2136ZM67.3279 31V13.4271H71.9728V16.5275H72.1788C72.5449 15.4979 73.155 14.6856 74.0093 14.0907C74.8635 13.4958 75.8855 13.1983 77.0754 13.1983C78.2805 13.1983 79.3063 13.4996 80.1529 14.1021C80.9995 14.697 81.5639 15.5055 81.8461 16.5275H82.0292C82.3877 15.5208 83.036 14.7161 83.9741 14.1136C84.9199 13.5034 86.0372 13.1983 87.3262 13.1983C88.9661 13.1983 90.297 13.7208 91.319 14.7657C92.3487 15.803 92.8635 17.275 92.8635 19.1818V31H88.0012V20.1428C88.0012 19.1665 87.7419 18.4343 87.2233 17.9462C86.7046 17.4581 86.0563 17.214 85.2783 17.214C84.3936 17.214 83.7033 17.4962 83.2076 18.0606C82.7118 18.6174 82.4639 19.3534 82.4639 20.2686V31H77.7389V20.0398C77.7389 19.178 77.4911 18.4915 76.9953 17.9805C76.5072 17.4695 75.8627 17.214 75.0618 17.214C74.5203 17.214 74.0322 17.3513 73.5974 17.6258C73.1703 17.8928 72.8309 18.2703 72.5792 18.7585C72.3275 19.239 72.2016 19.8034 72.2016 20.4517V31H67.3279ZM96.7133 31V13.4271H101.587V31H96.7133ZM99.1616 11.1619C98.437 11.1619 97.8154 10.9216 97.2968 10.4411C96.7858 9.95296 96.5302 9.36949 96.5302 8.69068C96.5302 8.01949 96.7858 7.44364 97.2968 6.96314C97.8154 6.475 98.437 6.23093 99.1616 6.23093C99.8862 6.23093 100.504 6.475 101.015 6.96314C101.534 7.44364 101.793 8.01949 101.793 8.69068C101.793 9.36949 101.534 9.95296 101.015 10.4411C100.504 10.9216 99.8862 11.1619 99.1616 11.1619ZM110.365 20.8407V31H105.491V13.4271H110.136V16.5275H110.342C110.731 15.5055 111.383 14.697 112.298 14.1021C113.214 13.4996 114.323 13.1983 115.628 13.1983C116.848 13.1983 117.912 13.4653 118.82 13.9992C119.727 14.533 120.433 15.2958 120.936 16.2873C121.439 17.2712 121.691 18.4458 121.691 19.811V31H116.817V20.6805C116.825 19.6051 116.55 18.7661 115.994 18.1636C115.437 17.5534 114.67 17.2483 113.694 17.2483C113.038 17.2483 112.459 17.3894 111.955 17.6716C111.459 17.9538 111.07 18.3657 110.788 18.9072C110.514 19.4411 110.373 20.0856 110.365 20.8407ZM132.008 31.286C130.673 31.286 129.464 30.9428 128.381 30.2564C127.306 29.5623 126.451 28.5441 125.818 27.2017C125.193 25.8517 124.88 24.1966 124.88 22.2364C124.88 20.2229 125.204 18.5487 125.853 17.214C126.501 15.8716 127.363 14.8686 128.438 14.2051C129.521 13.5339 130.707 13.1983 131.996 13.1983C132.98 13.1983 133.8 13.3661 134.456 13.7017C135.12 14.0297 135.654 14.4415 136.058 14.9373C136.47 15.4254 136.782 15.9059 136.996 16.3788H137.145V7.56949H142.007V31H137.202V28.1856H136.996C136.767 28.6737 136.443 29.1581 136.023 29.6386C135.612 30.1114 135.074 30.5042 134.41 30.8169C133.754 31.1297 132.954 31.286 132.008 31.286ZM133.552 27.4076C134.338 27.4076 135.001 27.1941 135.543 26.7669C136.092 26.3322 136.512 25.7258 136.801 24.9479C137.099 24.1699 137.248 23.2585 137.248 22.2136C137.248 21.1686 137.103 20.261 136.813 19.4907C136.523 18.7203 136.104 18.1254 135.554 17.7059C135.005 17.2864 134.338 17.0767 133.552 17.0767C132.751 17.0767 132.076 17.2941 131.527 17.7288C130.978 18.1636 130.562 18.7661 130.28 19.5364C129.998 20.3068 129.857 21.1992 129.857 22.2136C129.857 23.2356 129.998 24.1394 130.28 24.925C130.57 25.703 130.986 26.3131 131.527 26.7555C132.076 27.1903 132.751 27.4076 133.552 27.4076ZM154.023 31.3432C152.215 31.3432 150.659 30.9771 149.355 30.2449C148.058 29.5051 147.059 28.4602 146.357 27.1102C145.656 25.7525 145.305 24.147 145.305 22.2936C145.305 20.486 145.656 18.8996 146.357 17.5343C147.059 16.1691 148.047 15.1051 149.32 14.3424C150.602 13.5797 152.104 13.1983 153.828 13.1983C154.987 13.1983 156.067 13.3852 157.066 13.7589C158.073 14.125 158.95 14.678 159.697 15.4178C160.452 16.1576 161.039 17.0881 161.459 18.2093C161.878 19.3229 162.088 20.6271 162.088 22.122V23.4606H147.25V20.4403H157.5C157.5 19.7386 157.348 19.1169 157.043 18.5754C156.738 18.0339 156.314 17.6106 155.773 17.3055C155.239 16.9928 154.617 16.8364 153.908 16.8364C153.168 16.8364 152.512 17.0081 151.94 17.3513C151.376 17.6869 150.934 18.1407 150.613 18.7127C150.293 19.2771 150.129 19.9064 150.121 20.6004V23.472C150.121 24.3415 150.281 25.0928 150.602 25.7258C150.93 26.3589 151.391 26.847 151.986 27.1903C152.581 27.5335 153.286 27.7051 154.103 27.7051C154.644 27.7051 155.14 27.6288 155.59 27.4763C156.04 27.3237 156.425 27.0949 156.745 26.7898C157.066 26.4847 157.31 26.111 157.478 25.6686L161.985 25.9661C161.756 27.0492 161.287 27.9949 160.578 28.8034C159.876 29.6042 158.969 30.2297 157.855 30.6797C156.749 31.122 155.472 31.3432 154.023 31.3432ZM165.269 31V13.4271H169.994V16.4932H170.177C170.497 15.4025 171.035 14.5788 171.79 14.022C172.545 13.4576 173.414 13.1754 174.398 13.1754C174.642 13.1754 174.906 13.1907 175.188 13.2212C175.47 13.2517 175.718 13.2936 175.931 13.347V17.6716C175.703 17.603 175.386 17.5419 174.982 17.4886C174.578 17.4352 174.208 17.4085 173.872 17.4085C173.155 17.4085 172.514 17.5648 171.95 17.8775C171.393 18.1826 170.951 18.6097 170.623 19.1589C170.303 19.7081 170.142 20.3411 170.142 21.0581V31H165.269Z" fill="white"/>
<path d="M33.5206 39.6193H34.3443L37.1778 46.4227H37.2464L40.0799 39.6193H40.9036V47.4294H40.2324V41.1256H40.1714L37.5362 47.4294H36.8879L34.2528 41.1256H34.1918V47.4294H33.5206V39.6193ZM45.2072 47.5515C44.6606 47.5515 44.1877 47.4244 43.7886 47.1701C43.3894 46.9133 43.0805 46.5587 42.8619 46.1061C42.6458 45.6511 42.5377 45.1273 42.5377 44.535C42.5377 43.9451 42.6458 43.4214 42.8619 42.9638C43.0805 42.5036 43.3818 42.1438 43.7657 41.8845C44.1521 41.6227 44.5983 41.4917 45.1043 41.4917C45.422 41.4917 45.7284 41.5502 46.0233 41.6672C46.3182 41.7816 46.5826 41.9583 46.8165 42.1972C47.053 42.4337 47.2398 42.7324 47.3771 43.0934C47.5144 43.4519 47.5831 43.8765 47.5831 44.3672V44.7027H43.0068V44.104H46.889C46.889 43.7277 46.8127 43.3896 46.6602 43.0896C46.5102 42.7871 46.3004 42.5481 46.0309 42.3727C45.764 42.1972 45.4551 42.1095 45.1043 42.1095C44.7331 42.1095 44.4064 42.2087 44.1242 42.407C43.842 42.6053 43.6208 42.8672 43.4606 43.1926C43.303 43.518 43.2229 43.8739 43.2204 44.2604V44.6189C43.2204 45.0841 43.3004 45.4909 43.4606 45.8392C43.6233 46.185 43.8534 46.4532 44.1509 46.6439C44.4483 46.8345 44.8004 46.9299 45.2072 46.9299C45.4843 46.9299 45.7271 46.8866 45.9356 46.8002C46.1466 46.7138 46.3233 46.5981 46.4657 46.4532C46.6106 46.3057 46.7199 46.1443 46.7937 45.9689L47.4381 46.1786C47.3492 46.4252 47.203 46.6527 46.9996 46.8612C46.7987 47.0697 46.547 47.2375 46.2445 47.3646C45.9445 47.4892 45.5987 47.5515 45.2072 47.5515ZM53.0336 44.1841V44.8248H49.59V44.1841H53.0336ZM49.7577 41.5718V47.4294H49.0789V41.5718H49.7577ZM53.5332 41.5718V47.4294H52.8544V41.5718H53.5332ZM54.5199 42.2125V41.5718H59.0962V42.2125H57.1589V47.4294H56.4801V42.2125H54.5199ZM62.5036 47.5515C61.9977 47.5515 61.5502 47.4231 61.1612 47.1663C60.7748 46.9095 60.4723 46.5549 60.2536 46.1023C60.035 45.6472 59.9256 45.1222 59.9256 44.5273C59.9256 43.9273 60.035 43.3998 60.2536 42.9447C60.4723 42.4871 60.7748 42.1311 61.1612 41.8769C61.5502 41.6201 61.9977 41.4917 62.5036 41.4917C63.0095 41.4917 63.4557 41.6201 63.8422 41.8769C64.2286 42.1337 64.5312 42.4896 64.7498 42.9447C64.971 43.3998 65.0816 43.9273 65.0816 44.5273C65.0816 45.1222 64.9723 45.6472 64.7536 46.1023C64.535 46.5549 64.2312 46.9095 63.8422 47.1663C63.4557 47.4231 63.0095 47.5515 62.5036 47.5515ZM62.5036 46.9299C62.9104 46.9299 63.2549 46.8205 63.5371 46.6019C63.8193 46.3833 64.0329 46.0922 64.1778 45.7286C64.3252 45.365 64.399 44.9646 64.399 44.5273C64.399 44.09 64.3252 43.6883 64.1778 43.3222C64.0329 42.9561 63.8193 42.6625 63.5371 42.4413C63.2549 42.2201 62.9104 42.1095 62.5036 42.1095C62.0994 42.1095 61.7549 42.2201 61.4701 42.4413C61.1879 42.6625 60.9731 42.9561 60.8256 43.3222C60.6807 43.6883 60.6083 44.09 60.6083 44.5273C60.6083 44.9646 60.6807 45.365 60.8256 45.7286C60.9731 46.0922 61.1879 46.3833 61.4701 46.6019C61.7523 46.8205 62.0968 46.9299 62.5036 46.9299ZM66.5717 49.6261V41.5718H67.2315V42.6892H67.3116C67.3929 42.5138 67.5048 42.3345 67.6472 42.1515C67.7895 41.9659 67.9777 41.8095 68.2116 41.6824C68.448 41.5553 68.7455 41.4917 69.1039 41.4917C69.587 41.4917 70.009 41.6189 70.37 41.8731C70.7336 42.1248 71.0158 42.4782 71.2166 42.9333C71.42 43.3858 71.5217 43.9133 71.5217 44.5159C71.5217 45.121 71.42 45.6511 71.2166 46.1061C71.0158 46.5612 70.7336 46.9159 70.37 47.1701C70.009 47.4244 69.5895 47.5515 69.1116 47.5515C68.7582 47.5515 68.462 47.4879 68.223 47.3608C67.9866 47.2337 67.7946 47.0773 67.6472 46.8917C67.5022 46.7036 67.3904 46.5205 67.3116 46.3426H67.2505V49.6261H66.5717ZM67.2429 44.5044C67.2429 44.9773 67.3128 45.3968 67.4527 45.7629C67.595 46.1265 67.7984 46.4125 68.0628 46.621C68.3298 46.8269 68.6527 46.9299 69.0315 46.9299C69.4205 46.9299 69.7484 46.8231 70.0154 46.6095C70.2849 46.3934 70.4895 46.1023 70.6294 45.7362C70.7717 45.3701 70.8429 44.9595 70.8429 44.5044C70.8429 44.0544 70.773 43.6489 70.6332 43.2879C70.4959 42.9269 70.2925 42.6409 70.023 42.4299C69.7535 42.2163 69.423 42.1095 69.0315 42.1095C68.6501 42.1095 68.326 42.2125 68.059 42.4184C67.7921 42.6218 67.5887 42.904 67.4488 43.265C67.3116 43.6235 67.2429 44.0366 67.2429 44.5044ZM73.583 43.8333H75.2991C75.9575 43.8333 76.466 43.9934 76.8245 44.3138C77.183 44.6341 77.3622 45.0676 77.3622 45.6142C77.3622 45.9777 77.2808 46.2955 77.1181 46.5676C76.958 46.8396 76.7241 47.0519 76.4164 47.2044C76.1088 47.3544 75.7363 47.4294 75.2991 47.4294H73.0186V41.5718H73.7012V46.7888H75.2991C75.7135 46.7888 76.0465 46.6896 76.2982 46.4913C76.5525 46.293 76.6796 46.0108 76.6796 45.6447C76.6796 45.271 76.5525 44.9824 76.2982 44.779C76.0465 44.5756 75.7135 44.4739 75.2991 44.4739H73.583V43.8333ZM78.3499 47.4294V41.5718H79.0287V47.4294H78.3499ZM84.5336 46.4646L87.6264 41.5718H88.4387V47.4294H87.7599V42.5366L84.6785 47.4294H83.8548V41.5718H84.5336V46.4646ZM93.9302 46.4646L97.023 41.5718H97.8353V47.4294H97.1565V42.5366L94.0751 47.4294H93.2514V41.5718H93.9302V46.4646ZM101.916 47.5515C101.392 47.5515 100.936 47.4205 100.547 47.1587C100.16 46.8968 99.8603 46.5383 99.6467 46.0833C99.4332 45.6282 99.3264 45.1095 99.3264 44.5273C99.3264 43.94 99.4344 43.4176 99.6505 42.96C99.8692 42.5023 100.172 42.1438 100.558 41.8845C100.945 41.6227 101.393 41.4917 101.904 41.4917C102.296 41.4917 102.651 41.568 102.968 41.7205C103.286 41.8705 103.548 42.0828 103.754 42.3574C103.962 42.6294 104.093 42.9472 104.147 43.3108H103.46C103.389 42.9803 103.217 42.6981 102.945 42.4642C102.676 42.2277 102.333 42.1095 101.916 42.1095C101.542 42.1095 101.212 42.2112 100.924 42.4146C100.637 42.6155 100.412 42.8964 100.249 43.2574C100.089 43.6159 100.009 44.0316 100.009 44.5044C100.009 44.9799 100.088 45.4006 100.245 45.7667C100.403 46.1303 100.624 46.415 100.909 46.621C101.196 46.8269 101.532 46.9299 101.916 46.9299C102.175 46.9299 102.412 46.8816 102.625 46.785C102.841 46.6858 103.022 46.546 103.167 46.3655C103.314 46.185 103.413 45.9701 103.464 45.721H104.151C104.1 46.0744 103.974 46.3896 103.773 46.6667C103.575 46.9413 103.317 47.1574 102.999 47.315C102.684 47.4727 102.323 47.5515 101.916 47.5515ZM105.613 47.4294V41.5718H110.048V47.4294H109.366V42.2125H106.296V47.4294H105.613ZM114.122 47.5515C113.616 47.5515 113.169 47.4231 112.78 47.1663C112.393 46.9095 112.091 46.5549 111.872 46.1023C111.653 45.6472 111.544 45.1222 111.544 44.5273C111.544 43.9273 111.653 43.3998 111.872 42.9447C112.091 42.4871 112.393 42.1311 112.78 41.8769C113.169 41.6201 113.616 41.4917 114.122 41.4917C114.628 41.4917 115.074 41.6201 115.461 41.8769C115.847 42.1337 116.15 42.4896 116.368 42.9447C116.589 43.3998 116.7 43.9273 116.7 44.5273C116.7 45.1222 116.591 45.6472 116.372 46.1023C116.153 46.5549 115.85 46.9095 115.461 47.1663C115.074 47.4231 114.628 47.5515 114.122 47.5515ZM114.122 46.9299C114.529 46.9299 114.873 46.8205 115.156 46.6019C115.438 46.3833 115.651 46.0922 115.796 45.7286C115.944 45.365 116.017 44.9646 116.017 44.5273C116.017 44.09 115.944 43.6883 115.796 43.3222C115.651 42.9561 115.438 42.6625 115.156 42.4413C114.873 42.2201 114.529 42.1095 114.122 42.1095C113.718 42.1095 113.373 42.2201 113.089 42.4413C112.806 42.6625 112.592 42.9561 112.444 43.3222C112.299 43.6883 112.227 44.09 112.227 44.5273C112.227 44.9646 112.299 45.365 112.444 45.7286C112.592 46.0922 112.806 46.3833 113.089 46.6019C113.371 46.8205 113.715 46.9299 114.122 46.9299ZM117.614 47.4294V46.7888H117.797C118.006 46.7888 118.174 46.7506 118.301 46.6744C118.43 46.5955 118.531 46.4633 118.602 46.2777C118.673 46.0922 118.727 45.8392 118.762 45.5189C118.798 45.1985 118.826 44.7968 118.846 44.3138L118.972 41.5718H122.694V47.4294H122.011V42.2125H119.616L119.506 44.5426C119.483 45.018 119.445 45.4362 119.391 45.7972C119.341 46.1583 119.257 46.4595 119.14 46.7011C119.025 46.9426 118.865 47.1244 118.659 47.2464C118.456 47.3684 118.189 47.4294 117.858 47.4294H117.614ZM128.448 44.1841V44.8248H125.004V44.1841H128.448ZM125.172 41.5718V47.4294H124.493V41.5718H125.172ZM128.947 41.5718V47.4294H128.268V41.5718H128.947ZM131.433 46.4646L134.526 41.5718H135.338V47.4294H134.659V42.5366L131.578 47.4294H130.754V41.5718H131.433V46.4646ZM136.31 42.2125V41.5718H140.887V42.2125H138.949V47.4294H138.27V42.2125H136.31ZM144.386 47.5515C143.839 47.5515 143.366 47.4244 142.967 47.1701C142.568 46.9133 142.259 46.5587 142.04 46.1061C141.824 45.6511 141.716 45.1273 141.716 44.535C141.716 43.9451 141.824 43.4214 142.04 42.9638C142.259 42.5036 142.56 42.1438 142.944 41.8845C143.33 41.6227 143.777 41.4917 144.283 41.4917C144.6 41.4917 144.907 41.5502 145.202 41.6672C145.497 41.7816 145.761 41.9583 145.995 42.1972C146.231 42.4337 146.418 42.7324 146.555 43.0934C146.693 43.4519 146.761 43.8765 146.761 44.3672V44.7027H142.185V44.104H146.067C146.067 43.7277 145.991 43.3896 145.838 43.0896C145.688 42.7871 145.479 42.5481 145.209 42.3727C144.942 42.1972 144.633 42.1095 144.283 42.1095C143.911 42.1095 143.585 42.2087 143.302 42.407C143.02 42.6053 142.799 42.8672 142.639 43.1926C142.481 43.518 142.401 43.8739 142.399 44.2604V44.6189C142.399 45.0841 142.479 45.4909 142.639 45.8392C142.802 46.185 143.032 46.4532 143.329 46.6439C143.627 46.8345 143.979 46.9299 144.386 46.9299C144.663 46.9299 144.905 46.8866 145.114 46.8002C145.325 46.7138 145.502 46.5981 145.644 46.4532C145.789 46.3057 145.898 46.1443 145.972 45.9689L146.616 46.1786C146.527 46.4252 146.381 46.6527 146.178 46.8612C145.977 47.0697 145.725 47.2375 145.423 47.3646C145.123 47.4892 144.777 47.5515 144.386 47.5515ZM147.681 47.4294V46.7888H147.864C148.073 46.7888 148.241 46.7506 148.368 46.6744C148.497 46.5955 148.598 46.4633 148.669 46.2777C148.74 46.0922 148.794 45.8392 148.829 45.5189C148.865 45.1985 148.893 44.7968 148.913 44.3138L149.039 41.5718H152.761V47.4294H152.078V42.2125H149.683L149.573 44.5426C149.55 45.018 149.512 45.4362 149.458 45.7972C149.408 46.1583 149.324 46.4595 149.207 46.7011C149.092 46.9426 148.932 47.1244 148.726 47.2464C148.523 47.3684 148.256 47.4294 147.925 47.4294H147.681ZM155.239 46.4646L158.332 41.5718H159.144V47.4294H158.465V42.5366L155.384 47.4294H154.56V41.5718H155.239V46.4646Z" fill="white"/>
</svg>
