<svg width="156" height="51" viewBox="0 0 156 51" fill="none" xmlns="http://www.w3.org/2000/svg">
<path d="M17.0026 7.56949H21.9564V22.7856C21.9564 24.4941 21.5484 25.989 20.7323 27.2703C19.9238 28.5517 18.7912 29.5508 17.3344 30.2678C15.8776 30.9771 14.1806 31.3318 12.2433 31.3318C10.2984 31.3318 8.59751 30.9771 7.14073 30.2678C5.68395 29.5508 4.55133 28.5517 3.74285 27.2703C2.93438 25.989 2.53014 24.4941 2.53014 22.7856V7.56949H7.48395V22.3623C7.48395 23.2547 7.67844 24.0479 8.06743 24.7419C8.46404 25.436 9.02082 25.9814 9.73777 26.378C10.4547 26.7746 11.2899 26.9729 12.2433 26.9729C13.2043 26.9729 14.0395 26.7746 14.7488 26.378C15.4657 25.9814 16.0187 25.436 16.4077 24.7419C16.8043 24.0479 17.0026 23.2547 17.0026 22.3623V7.56949ZM25.9406 37.5898V13.4271H30.7457V16.3788H30.9631C31.1766 15.9059 31.4855 15.4254 31.8898 14.9373C32.3016 14.4415 32.8355 14.0297 33.4915 13.7017C34.155 13.3661 34.9788 13.1983 35.9627 13.1983C37.244 13.1983 38.4262 13.5339 39.5093 14.2051C40.5923 14.8686 41.458 15.8716 42.1063 17.214C42.7546 18.5487 43.0788 20.2229 43.0788 22.2364C43.0788 24.1966 42.7622 25.8517 42.1292 27.2017C41.5038 28.5441 40.6495 29.5623 39.5665 30.2564C38.4911 30.9428 37.286 31.286 35.9512 31.286C35.0055 31.286 34.2008 31.1297 33.5372 30.8169C32.8813 30.5042 32.3436 30.1114 31.9241 29.6386C31.5046 29.1581 31.1843 28.6737 30.9631 28.1856H30.8144V37.5898H25.9406ZM30.7114 22.2136C30.7114 23.2585 30.8563 24.1699 31.1461 24.9479C31.436 25.7258 31.8555 26.3322 32.4046 26.7669C32.9538 27.1941 33.6211 27.4076 34.4067 27.4076C35.1999 27.4076 35.8711 27.1903 36.4203 26.7555C36.9694 26.3131 37.3851 25.703 37.6673 24.925C37.9572 24.1394 38.1021 23.2356 38.1021 22.2136C38.1021 21.1992 37.961 20.3068 37.6788 19.5364C37.3966 18.7661 36.9809 18.1636 36.4317 17.7288C35.8826 17.2941 35.2076 17.0767 34.4067 17.0767C33.6135 17.0767 32.9423 17.2864 32.3932 17.7059C31.8516 18.1254 31.436 18.7203 31.1461 19.4907C30.8563 20.261 30.7114 21.1686 30.7114 22.2136ZM46.3279 31V13.4271H50.9728V16.5275H51.1788C51.5449 15.4979 52.155 14.6856 53.0093 14.0907C53.8635 13.4958 54.8855 13.1983 56.0754 13.1983C57.2805 13.1983 58.3063 13.4996 59.1529 14.1021C59.9995 14.697 60.5639 15.5055 60.8461 16.5275H61.0292C61.3877 15.5208 62.036 14.7161 62.9741 14.1136C63.9199 13.5034 65.0372 13.1983 66.3262 13.1983C67.9661 13.1983 69.297 13.7208 70.319 14.7657C71.3487 15.803 71.8635 17.275 71.8635 19.1818V31H67.0012V20.1428C67.0012 19.1665 66.7419 18.4343 66.2233 17.9462C65.7046 17.4581 65.0563 17.214 64.2783 17.214C63.3936 17.214 62.7033 17.4962 62.2076 18.0606C61.7118 18.6174 61.4639 19.3534 61.4639 20.2686V31H56.7389V20.0398C56.7389 19.178 56.4911 18.4915 55.9953 17.9805C55.5072 17.4695 54.8627 17.214 54.0618 17.214C53.5203 17.214 53.0322 17.3513 52.5974 17.6258C52.1703 17.8928 51.8309 18.2703 51.5792 18.7585C51.3275 19.239 51.2016 19.8034 51.2016 20.4517V31H46.3279ZM75.7133 31V13.4271H80.587V31H75.7133ZM78.1616 11.1619C77.437 11.1619 76.8154 10.9216 76.2968 10.4411C75.7858 9.95296 75.5302 9.36949 75.5302 8.69068C75.5302 8.01949 75.7858 7.44364 76.2968 6.96314C76.8154 6.475 77.437 6.23093 78.1616 6.23093C78.8862 6.23093 79.504 6.475 80.015 6.96314C80.5336 7.44364 80.793 8.01949 80.793 8.69068C80.793 9.36949 80.5336 9.95296 80.015 10.4411C79.504 10.9216 78.8862 11.1619 78.1616 11.1619ZM89.3649 20.8407V31H84.4912V13.4271H89.1361V16.5275H89.342C89.731 15.5055 90.3831 14.697 91.2984 14.1021C92.2136 13.4996 93.3234 13.1983 94.6276 13.1983C95.8479 13.1983 96.9119 13.4653 97.8195 13.9992C98.7272 14.533 99.4327 15.2958 99.9361 16.2873C100.439 17.2712 100.691 18.4458 100.691 19.811V31H95.8174V20.6805C95.8251 19.6051 95.5505 18.7661 94.9937 18.1636C94.4369 17.5534 93.6704 17.2483 92.6941 17.2483C92.0382 17.2483 91.4585 17.3894 90.9551 17.6716C90.4594 17.9538 90.0704 18.3657 89.7882 18.9072C89.5136 19.4411 89.3725 20.0856 89.3649 20.8407ZM111.008 31.286C109.673 31.286 108.464 30.9428 107.381 30.2564C106.306 29.5623 105.451 28.5441 104.818 27.2017C104.193 25.8517 103.88 24.1966 103.88 22.2364C103.88 20.2229 104.204 18.5487 104.853 17.214C105.501 15.8716 106.363 14.8686 107.438 14.2051C108.521 13.5339 109.707 13.1983 110.996 13.1983C111.98 13.1983 112.8 13.3661 113.456 13.7017C114.12 14.0297 114.654 14.4415 115.058 14.9373C115.47 15.4254 115.782 15.9059 115.996 16.3788H116.145V7.56949H121.007V31H116.202V28.1856H115.996C115.767 28.6737 115.443 29.1581 115.023 29.6386C114.612 30.1114 114.074 30.5042 113.41 30.8169C112.754 31.1297 111.954 31.286 111.008 31.286ZM112.552 27.4076C113.338 27.4076 114.001 27.1941 114.543 26.7669C115.092 26.3322 115.512 25.7258 115.801 24.9479C116.099 24.1699 116.248 23.2585 116.248 22.2136C116.248 21.1686 116.103 20.261 115.813 19.4907C115.523 18.7203 115.104 18.1254 114.554 17.7059C114.005 17.2864 113.338 17.0767 112.552 17.0767C111.751 17.0767 111.076 17.2941 110.527 17.7288C109.978 18.1636 109.562 18.7661 109.28 19.5364C108.998 20.3068 108.857 21.1992 108.857 22.2136C108.857 23.2356 108.998 24.1394 109.28 24.925C109.57 25.703 109.986 26.3131 110.527 26.7555C111.076 27.1903 111.751 27.4076 112.552 27.4076ZM133.023 31.3432C131.215 31.3432 129.659 30.9771 128.355 30.2449C127.058 29.5051 126.059 28.4602 125.357 27.1102C124.656 25.7525 124.305 24.147 124.305 22.2936C124.305 20.486 124.656 18.8996 125.357 17.5343C126.059 16.1691 127.047 15.1051 128.32 14.3424C129.602 13.5797 131.104 13.1983 132.828 13.1983C133.987 13.1983 135.067 13.3852 136.066 13.7589C137.073 14.125 137.95 14.678 138.697 15.4178C139.452 16.1576 140.039 17.0881 140.459 18.2093C140.878 19.3229 141.088 20.6271 141.088 22.122V23.4606H126.25V20.4403H136.5C136.5 19.7386 136.348 19.1169 136.043 18.5754C135.738 18.0339 135.314 17.6106 134.773 17.3055C134.239 16.9928 133.617 16.8364 132.908 16.8364C132.168 16.8364 131.512 17.0081 130.94 17.3513C130.376 17.6869 129.934 18.1407 129.613 18.7127C129.293 19.2771 129.129 19.9064 129.121 20.6004V23.472C129.121 24.3415 129.281 25.0928 129.602 25.7258C129.93 26.3589 130.391 26.847 130.986 27.1903C131.581 27.5335 132.286 27.7051 133.103 27.7051C133.644 27.7051 134.14 27.6288 134.59 27.4763C135.04 27.3237 135.425 27.0949 135.745 26.7898C136.066 26.4847 136.31 26.111 136.478 25.6686L140.985 25.9661C140.756 27.0492 140.287 27.9949 139.578 28.8034C138.876 29.6042 137.969 30.2297 136.855 30.6797C135.749 31.122 134.472 31.3432 133.023 31.3432ZM144.269 31V13.4271H148.994V16.4932H149.177C149.497 15.4025 150.035 14.5788 150.79 14.022C151.545 13.4576 152.414 13.1754 153.398 13.1754C153.642 13.1754 153.906 13.1907 154.188 13.2212C154.47 13.2517 154.718 13.2936 154.931 13.347V17.6716C154.703 17.603 154.386 17.5419 153.982 17.4886C153.578 17.4352 153.208 17.4085 152.872 17.4085C152.155 17.4085 151.514 17.5648 150.95 17.8775C150.393 18.1826 149.951 18.6097 149.623 19.1589C149.303 19.7081 149.142 20.3411 149.142 21.0581V31H144.269Z" fill="white"/>
<path d="M13.4395 39.4337H14.2632L17.0967 46.2371H17.1654L19.9988 39.4337H20.8226V47.2439H20.1514V40.9401H20.0904L17.4552 47.2439H16.8069L14.1717 40.9401H14.1107V47.2439H13.4395V39.4337ZM25.1262 47.3659C24.5796 47.3659 24.1067 47.2388 23.7075 46.9846C23.3084 46.7278 22.9995 46.3731 22.7808 45.9206C22.5647 45.4655 22.4567 44.9418 22.4567 44.3494C22.4567 43.7596 22.5647 43.2358 22.7808 42.7782C22.9995 42.318 23.3007 41.9583 23.6846 41.699C24.0711 41.4371 24.5173 41.3062 25.0232 41.3062C25.341 41.3062 25.6473 41.3647 25.9423 41.4816C26.2372 41.596 26.5016 41.7727 26.7355 42.0117C26.9719 42.2481 27.1588 42.5469 27.2961 42.9079C27.4334 43.2664 27.502 43.6909 27.502 44.1816V44.5172H22.9257V43.9185H26.8079C26.8079 43.5422 26.7317 43.2041 26.5791 42.9041C26.4291 42.6015 26.2194 42.3625 25.9499 42.1871C25.6829 42.0117 25.374 41.924 25.0232 41.924C24.652 41.924 24.3253 42.0231 24.0431 42.2214C23.7609 42.4197 23.5397 42.6816 23.3796 43.007C23.2219 43.3325 23.1418 43.6884 23.1393 44.0748V44.4333C23.1393 44.8986 23.2194 45.3053 23.3796 45.6536C23.5423 45.9994 23.7723 46.2676 24.0698 46.4583C24.3673 46.649 24.7194 46.7443 25.1262 46.7443C25.4033 46.7443 25.6461 46.7011 25.8546 46.6147C26.0656 46.5282 26.2423 46.4125 26.3846 46.2676C26.5296 46.1202 26.6389 45.9587 26.7126 45.7833L27.3571 45.993C27.2681 46.2397 27.1219 46.4672 26.9185 46.6757C26.7177 46.8842 26.466 47.0519 26.1635 47.1791C25.8635 47.3036 25.5177 47.3659 25.1262 47.3659ZM32.9525 43.9986V44.6392H29.5089V43.9986H32.9525ZM29.6767 41.3863V47.2439H28.9979V41.3863H29.6767ZM33.4521 41.3863V47.2439H32.7733V41.3863H33.4521ZM34.4389 42.0269V41.3863H39.0151V42.0269H37.0779V47.2439H36.399V42.0269H34.4389ZM42.4226 47.3659C41.9166 47.3659 41.4692 47.2375 41.0802 46.9808C40.6937 46.724 40.3912 46.3693 40.1726 45.9168C39.9539 45.4617 39.8446 44.9367 39.8446 44.3418C39.8446 43.7418 39.9539 43.2142 40.1726 42.7592C40.3912 42.3015 40.6937 41.9456 41.0802 41.6914C41.4692 41.4346 41.9166 41.3062 42.4226 41.3062C42.9285 41.3062 43.3747 41.4346 43.7611 41.6914C44.1476 41.9481 44.4501 42.3041 44.6687 42.7592C44.8899 43.2142 45.0005 43.7418 45.0005 44.3418C45.0005 44.9367 44.8912 45.4617 44.6726 45.9168C44.4539 46.3693 44.1501 46.724 43.7611 46.9808C43.3747 47.2375 42.9285 47.3659 42.4226 47.3659ZM42.4226 46.7443C42.8293 46.7443 43.1738 46.635 43.456 46.4164C43.7382 46.1977 43.9518 45.9066 44.0967 45.543C44.2442 45.1795 44.3179 44.7791 44.3179 44.3418C44.3179 43.9045 44.2442 43.5028 44.0967 43.1367C43.9518 42.7706 43.7382 42.4769 43.456 42.2558C43.1738 42.0346 42.8293 41.924 42.4226 41.924C42.0183 41.924 41.6738 42.0346 41.3891 42.2558C41.1069 42.4769 40.8921 42.7706 40.7446 43.1367C40.5997 43.5028 40.5272 43.9045 40.5272 44.3418C40.5272 44.7791 40.5997 45.1795 40.7446 45.543C40.8921 45.9066 41.1069 46.1977 41.3891 46.4164C41.6713 46.635 42.0158 46.7443 42.4226 46.7443ZM46.4907 49.4405V41.3863H47.1504V42.5036H47.2305C47.3119 42.3282 47.4237 42.149 47.5661 41.9659C47.7085 41.7803 47.8966 41.624 48.1305 41.4969C48.3669 41.3697 48.6644 41.3062 49.0229 41.3062C49.5059 41.3062 49.928 41.4333 50.289 41.6875C50.6525 41.9392 50.9347 42.2926 51.1356 42.7477C51.339 43.2003 51.4407 43.7278 51.4407 44.3303C51.4407 44.9354 51.339 45.4655 51.1356 45.9206C50.9347 46.3757 50.6525 46.7303 50.289 46.9846C49.928 47.2388 49.5085 47.3659 49.0305 47.3659C48.6771 47.3659 48.3809 47.3024 48.1419 47.1753C47.9055 47.0481 47.7136 46.8918 47.5661 46.7062C47.4212 46.518 47.3093 46.335 47.2305 46.157H47.1695V49.4405H46.4907ZM47.1619 44.3189C47.1619 44.7918 47.2318 45.2113 47.3716 45.5774C47.514 45.9409 47.7174 46.2269 47.9818 46.4354C48.2487 46.6414 48.5716 46.7443 48.9504 46.7443C49.3394 46.7443 49.6674 46.6375 49.9343 46.424C50.2038 46.2079 50.4085 45.9168 50.5483 45.5507C50.6907 45.1846 50.7619 44.774 50.7619 44.3189C50.7619 43.8689 50.6919 43.4634 50.5521 43.1024C50.4148 42.7414 50.2114 42.4553 49.9419 42.2443C49.6725 42.0308 49.3419 41.924 48.9504 41.924C48.5691 41.924 48.2449 42.0269 47.978 42.2329C47.711 42.4363 47.5076 42.7185 47.3678 43.0795C47.2305 43.438 47.1619 43.8511 47.1619 44.3189ZM53.5019 43.6477H55.218C55.8765 43.6477 56.385 43.8079 56.7434 44.1282C57.1019 44.4486 57.2811 44.882 57.2811 45.4286C57.2811 45.7922 57.1998 46.11 57.0371 46.382C56.8769 46.6541 56.643 46.8664 56.3354 47.0189C56.0278 47.1689 55.6553 47.2439 55.218 47.2439H52.9375V41.3863H53.6201V46.6032H55.218C55.6324 46.6032 55.9655 46.5041 56.2172 46.3058C56.4714 46.1075 56.5985 45.8253 56.5985 45.4592C56.5985 45.0854 56.4714 44.7969 56.2172 44.5935C55.9655 44.3901 55.6324 44.2884 55.218 44.2884H53.5019V43.6477ZM58.2689 47.2439V41.3863H58.9477V47.2439H58.2689ZM64.4525 46.2791L67.5453 41.3863H68.3576V47.2439H67.6788V42.3511L64.5975 47.2439H63.7737V41.3863H64.4525V46.2791ZM73.8492 46.2791L76.9419 41.3863H77.7542V47.2439H77.0754V42.3511L73.9941 47.2439H73.1703V41.3863H73.8492V46.2791ZM81.8347 47.3659C81.311 47.3659 80.8547 47.235 80.4657 46.9731C80.0792 46.7113 79.7792 46.3528 79.5657 45.8977C79.3521 45.4426 79.2453 44.924 79.2453 44.3418C79.2453 43.7545 79.3534 43.232 79.5695 42.7744C79.7881 42.3168 80.0907 41.9583 80.4771 41.699C80.8636 41.4371 81.3123 41.3062 81.8233 41.3062C82.2148 41.3062 82.5695 41.3825 82.8873 41.535C83.2051 41.685 83.4669 41.8973 83.6729 42.1719C83.8814 42.4439 84.0123 42.7617 84.0657 43.1253H83.3792C83.308 42.7947 83.1364 42.5125 82.8644 42.2786C82.5949 42.0422 82.2517 41.924 81.8347 41.924C81.461 41.924 81.1305 42.0257 80.8432 42.2291C80.5559 42.4299 80.3309 42.7108 80.1682 43.0719C80.008 43.4303 79.928 43.846 79.928 44.3189C79.928 44.7943 80.0068 45.2151 80.1644 45.5812C80.322 45.9447 80.5432 46.2295 80.828 46.4354C81.1153 46.6414 81.4508 46.7443 81.8347 46.7443C82.0941 46.7443 82.3305 46.696 82.5441 46.5994C82.7602 46.5003 82.9407 46.3604 83.0856 46.1799C83.233 45.9994 83.3322 45.7846 83.383 45.5354H84.0695C84.0186 45.8888 83.8928 46.2041 83.6919 46.4812C83.4936 46.7558 83.2356 46.9719 82.9178 47.1295C82.6025 47.2871 82.2415 47.3659 81.8347 47.3659ZM85.532 47.2439V41.3863H89.9672V47.2439H89.2845V42.0269H86.2146V47.2439H85.532ZM94.041 47.3659C93.5351 47.3659 93.0876 47.2375 92.6986 46.9808C92.3122 46.724 92.0096 46.3693 91.791 45.9168C91.5723 45.4617 91.463 44.9367 91.463 44.3418C91.463 43.7418 91.5723 43.2142 91.791 42.7592C92.0096 42.3015 92.3122 41.9456 92.6986 41.6914C93.0876 41.4346 93.5351 41.3062 94.041 41.3062C94.5469 41.3062 94.9931 41.4346 95.3796 41.6914C95.766 41.9481 96.0685 42.3041 96.2872 42.7592C96.5084 43.2142 96.619 43.7418 96.619 44.3418C96.619 44.9367 96.5096 45.4617 96.291 45.9168C96.0723 46.3693 95.7685 46.724 95.3796 46.9808C94.9931 47.2375 94.5469 47.3659 94.041 47.3659ZM94.041 46.7443C94.4478 46.7443 94.7923 46.635 95.0745 46.4164C95.3567 46.1977 95.5702 45.9066 95.7151 45.543C95.8626 45.1795 95.9363 44.7791 95.9363 44.3418C95.9363 43.9045 95.8626 43.5028 95.7151 43.1367C95.5702 42.7706 95.3567 42.4769 95.0745 42.2558C94.7923 42.0346 94.4478 41.924 94.041 41.924C93.6368 41.924 93.2923 42.0346 93.0075 42.2558C92.7253 42.4769 92.5105 42.7706 92.363 43.1367C92.2181 43.5028 92.1457 43.9045 92.1457 44.3418C92.1457 44.7791 92.2181 45.1795 92.363 45.543C92.5105 45.9066 92.7253 46.1977 93.0075 46.4164C93.2897 46.635 93.6342 46.7443 94.041 46.7443ZM97.5333 47.2439V46.6032H97.7163C97.9248 46.6032 98.0926 46.5651 98.2197 46.4888C98.3494 46.41 98.4498 46.2778 98.521 46.0922C98.5922 45.9066 98.6455 45.6536 98.6811 45.3333C98.7167 45.013 98.7447 44.6113 98.765 44.1282L98.8909 41.3863H102.613V47.2439H101.93V42.0269H99.5354L99.4248 44.357C99.4019 44.8325 99.3638 45.2507 99.3104 45.6117C99.2595 45.9727 99.1756 46.274 99.0587 46.5155C98.9443 46.757 98.7841 46.9388 98.5782 47.0608C98.3748 47.1829 98.1078 47.2439 97.7773 47.2439H97.5333ZM108.367 43.9986V44.6392H104.923V43.9986H108.367ZM105.091 41.3863V47.2439H104.412V41.3863H105.091ZM108.866 41.3863V47.2439H108.187V41.3863H108.866ZM111.352 46.2791L114.444 41.3863H115.257V47.2439H114.578V42.3511L111.497 47.2439H110.673V41.3863H111.352V46.2791ZM116.229 42.0269V41.3863H120.806V42.0269H118.868V47.2439H118.189V42.0269H116.229ZM124.304 47.3659C123.758 47.3659 123.285 47.2388 122.886 46.9846C122.487 46.7278 122.178 46.3731 121.959 45.9206C121.743 45.4655 121.635 44.9418 121.635 44.3494C121.635 43.7596 121.743 43.2358 121.959 42.7782C122.178 42.318 122.479 41.9583 122.863 41.699C123.249 41.4371 123.696 41.3062 124.201 41.3062C124.519 41.3062 124.826 41.3647 125.121 41.4816C125.415 41.596 125.68 41.7727 125.914 42.0117C126.15 42.2481 126.337 42.5469 126.474 42.9079C126.612 43.2664 126.68 43.6909 126.68 44.1816V44.5172H122.104V43.9185H125.986C125.986 43.5422 125.91 43.2041 125.757 42.9041C125.607 42.6015 125.398 42.3625 125.128 42.1871C124.861 42.0117 124.552 41.924 124.201 41.924C123.83 41.924 123.504 42.0231 123.221 42.2214C122.939 42.4197 122.718 42.6816 122.558 43.007C122.4 43.3325 122.32 43.6884 122.318 44.0748V44.4333C122.318 44.8986 122.398 45.3053 122.558 45.6536C122.721 45.9994 122.951 46.2676 123.248 46.4583C123.546 46.649 123.898 46.7443 124.304 46.7443C124.582 46.7443 124.824 46.7011 125.033 46.6147C125.244 46.5282 125.421 46.4125 125.563 46.2676C125.708 46.1202 125.817 45.9587 125.891 45.7833L126.535 45.993C126.446 46.2397 126.3 46.4672 126.097 46.6757C125.896 46.8842 125.644 47.0519 125.342 47.1791C125.042 47.3036 124.696 47.3659 124.304 47.3659ZM127.6 47.2439V46.6032H127.783C127.992 46.6032 128.16 46.5651 128.287 46.4888C128.416 46.41 128.517 46.2778 128.588 46.0922C128.659 45.9066 128.713 45.6536 128.748 45.3333C128.784 45.013 128.812 44.6113 128.832 44.1282L128.958 41.3863H132.68V47.2439H131.997V42.0269H129.602L129.492 44.357C129.469 44.8325 129.431 45.2507 129.377 45.6117C129.327 45.9727 129.243 46.274 129.126 46.5155C129.011 46.757 128.851 46.9388 128.645 47.0608C128.442 47.1829 128.175 47.2439 127.844 47.2439H127.6ZM135.158 46.2791L138.251 41.3863H139.063V47.2439H138.384V42.3511L135.303 47.2439H134.479V41.3863H135.158V46.2791Z" fill="white"/>
</svg>
