<svg width="153" height="50" viewBox="0 0 153 50" fill="none" xmlns="http://www.w3.org/2000/svg">
<path d="M15.0026 7.56949H19.9564V22.7856C19.9564 24.4941 19.5484 25.989 18.7323 27.2703C17.9238 28.5517 16.7912 29.5508 15.3344 30.2678C13.8776 30.9771 12.1806 31.3318 10.2433 31.3318C8.29836 31.3318 6.59751 30.9771 5.14073 30.2678C3.68395 29.5508 2.55133 28.5517 1.74285 27.2703C0.934376 25.989 0.530139 24.4941 0.530139 22.7856V7.56949H5.48395V22.3623C5.48395 23.2547 5.67844 24.0479 6.06743 24.7419C6.46404 25.436 7.02082 25.9814 7.73777 26.378C8.45472 26.7746 9.28988 26.9729 10.2433 26.9729C11.2043 26.9729 12.0395 26.7746 12.7488 26.378C13.4657 25.9814 14.0187 25.436 14.4077 24.7419C14.8043 24.0479 15.0026 23.2547 15.0026 22.3623V7.56949ZM23.9406 37.5898V13.4271H28.7457V16.3788H28.9631C29.1766 15.9059 29.4855 15.4254 29.8898 14.9373C30.3016 14.4415 30.8355 14.0297 31.4915 13.7017C32.155 13.3661 32.9788 13.1983 33.9627 13.1983C35.244 13.1983 36.4262 13.5339 37.5093 14.2051C38.5923 14.8686 39.458 15.8716 40.1063 17.214C40.7546 18.5487 41.0788 20.2229 41.0788 22.2364C41.0788 24.1966 40.7622 25.8517 40.1292 27.2017C39.5038 28.5441 38.6495 29.5623 37.5665 30.2564C36.4911 30.9428 35.286 31.286 33.9512 31.286C33.0055 31.286 32.2008 31.1297 31.5372 30.8169C30.8813 30.5042 30.3436 30.1114 29.9241 29.6386C29.5046 29.1581 29.1843 28.6737 28.9631 28.1856H28.8144V37.5898H23.9406ZM28.7114 22.2136C28.7114 23.2585 28.8563 24.1699 29.1461 24.9479C29.436 25.7258 29.8555 26.3322 30.4046 26.7669C30.9538 27.1941 31.6211 27.4076 32.4067 27.4076C33.1999 27.4076 33.8711 27.1903 34.4203 26.7555C34.9694 26.3131 35.3851 25.703 35.6673 24.925C35.9572 24.1394 36.1021 23.2356 36.1021 22.2136C36.1021 21.1992 35.961 20.3068 35.6788 19.5364C35.3966 18.7661 34.9809 18.1636 34.4317 17.7288C33.8826 17.2941 33.2076 17.0767 32.4067 17.0767C31.6135 17.0767 30.9423 17.2864 30.3932 17.7059C29.8516 18.1254 29.436 18.7203 29.1461 19.4907C28.8563 20.261 28.7114 21.1686 28.7114 22.2136ZM44.3279 31V13.4271H48.9728V16.5275H49.1788C49.5449 15.4979 50.155 14.6856 51.0093 14.0907C51.8635 13.4958 52.8855 13.1983 54.0754 13.1983C55.2805 13.1983 56.3063 13.4996 57.1529 14.1021C57.9995 14.697 58.5639 15.5055 58.8461 16.5275H59.0292C59.3877 15.5208 60.036 14.7161 60.9741 14.1136C61.9199 13.5034 63.0372 13.1983 64.3262 13.1983C65.9661 13.1983 67.297 13.7208 68.319 14.7657C69.3487 15.803 69.8635 17.275 69.8635 19.1818V31H65.0012V20.1428C65.0012 19.1665 64.7419 18.4343 64.2233 17.9462C63.7046 17.4581 63.0563 17.214 62.2783 17.214C61.3936 17.214 60.7033 17.4962 60.2076 18.0606C59.7118 18.6174 59.4639 19.3534 59.4639 20.2686V31H54.7389V20.0398C54.7389 19.178 54.4911 18.4915 53.9953 17.9805C53.5072 17.4695 52.8627 17.214 52.0618 17.214C51.5203 17.214 51.0322 17.3513 50.5974 17.6258C50.1703 17.8928 49.8309 18.2703 49.5792 18.7585C49.3275 19.239 49.2016 19.8034 49.2016 20.4517V31H44.3279ZM73.7133 31V13.4271H78.587V31H73.7133ZM76.1616 11.1619C75.437 11.1619 74.8154 10.9216 74.2968 10.4411C73.7858 9.95296 73.5302 9.36949 73.5302 8.69068C73.5302 8.01949 73.7858 7.44364 74.2968 6.96314C74.8154 6.475 75.437 6.23093 76.1616 6.23093C76.8862 6.23093 77.504 6.475 78.015 6.96314C78.5336 7.44364 78.793 8.01949 78.793 8.69068C78.793 9.36949 78.5336 9.95296 78.015 10.4411C77.504 10.9216 76.8862 11.1619 76.1616 11.1619ZM87.3649 20.8407V31H82.4912V13.4271H87.1361V16.5275H87.342C87.731 15.5055 88.3831 14.697 89.2984 14.1021C90.2136 13.4996 91.3234 13.1983 92.6276 13.1983C93.8479 13.1983 94.9119 13.4653 95.8195 13.9992C96.7272 14.533 97.4327 15.2958 97.9361 16.2873C98.4395 17.2712 98.6912 18.4458 98.6912 19.811V31H93.8174V20.6805C93.8251 19.6051 93.5505 18.7661 92.9937 18.1636C92.4369 17.5534 91.6704 17.2483 90.6941 17.2483C90.0382 17.2483 89.4585 17.3894 88.9551 17.6716C88.4594 17.9538 88.0704 18.3657 87.7882 18.9072C87.5136 19.4411 87.3725 20.0856 87.3649 20.8407ZM109.008 31.286C107.673 31.286 106.464 30.9428 105.381 30.2564C104.306 29.5623 103.451 28.5441 102.818 27.2017C102.193 25.8517 101.88 24.1966 101.88 22.2364C101.88 20.2229 102.204 18.5487 102.853 17.214C103.501 15.8716 104.363 14.8686 105.438 14.2051C106.521 13.5339 107.707 13.1983 108.996 13.1983C109.98 13.1983 110.8 13.3661 111.456 13.7017C112.12 14.0297 112.654 14.4415 113.058 14.9373C113.47 15.4254 113.782 15.9059 113.996 16.3788H114.145V7.56949H119.007V31H114.202V28.1856H113.996C113.767 28.6737 113.443 29.1581 113.023 29.6386C112.612 30.1114 112.074 30.5042 111.41 30.8169C110.754 31.1297 109.954 31.286 109.008 31.286ZM110.552 27.4076C111.338 27.4076 112.001 27.1941 112.543 26.7669C113.092 26.3322 113.512 25.7258 113.801 24.9479C114.099 24.1699 114.248 23.2585 114.248 22.2136C114.248 21.1686 114.103 20.261 113.813 19.4907C113.523 18.7203 113.104 18.1254 112.554 17.7059C112.005 17.2864 111.338 17.0767 110.552 17.0767C109.751 17.0767 109.076 17.2941 108.527 17.7288C107.978 18.1636 107.562 18.7661 107.28 19.5364C106.998 20.3068 106.857 21.1992 106.857 22.2136C106.857 23.2356 106.998 24.1394 107.28 24.925C107.57 25.703 107.986 26.3131 108.527 26.7555C109.076 27.1903 109.751 27.4076 110.552 27.4076ZM131.023 31.3432C129.215 31.3432 127.659 30.9771 126.355 30.2449C125.058 29.5051 124.059 28.4602 123.357 27.1102C122.656 25.7525 122.305 24.147 122.305 22.2936C122.305 20.486 122.656 18.8996 123.357 17.5343C124.059 16.1691 125.047 15.1051 126.32 14.3424C127.602 13.5797 129.104 13.1983 130.828 13.1983C131.987 13.1983 133.067 13.3852 134.066 13.7589C135.073 14.125 135.95 14.678 136.697 15.4178C137.452 16.1576 138.039 17.0881 138.459 18.2093C138.878 19.3229 139.088 20.6271 139.088 22.122V23.4606H124.25V20.4403H134.5C134.5 19.7386 134.348 19.1169 134.043 18.5754C133.738 18.0339 133.314 17.6106 132.773 17.3055C132.239 16.9928 131.617 16.8364 130.908 16.8364C130.168 16.8364 129.512 17.0081 128.94 17.3513C128.376 17.6869 127.934 18.1407 127.613 18.7127C127.293 19.2771 127.129 19.9064 127.121 20.6004V23.472C127.121 24.3415 127.281 25.0928 127.602 25.7258C127.93 26.3589 128.391 26.847 128.986 27.1903C129.581 27.5335 130.286 27.7051 131.103 27.7051C131.644 27.7051 132.14 27.6288 132.59 27.4763C133.04 27.3237 133.425 27.0949 133.745 26.7898C134.066 26.4847 134.31 26.111 134.478 25.6686L138.985 25.9661C138.756 27.0492 138.287 27.9949 137.578 28.8034C136.876 29.6042 135.969 30.2297 134.855 30.6797C133.749 31.122 132.472 31.3432 131.023 31.3432ZM142.269 31V13.4271H146.994V16.4932H147.177C147.497 15.4025 148.035 14.5788 148.79 14.022C149.545 13.4576 150.414 13.1754 151.398 13.1754C151.642 13.1754 151.906 13.1907 152.188 13.2212C152.47 13.2517 152.718 13.2936 152.931 13.347V17.6716C152.703 17.603 152.386 17.5419 151.982 17.4886C151.578 17.4352 151.208 17.4085 150.872 17.4085C150.155 17.4085 149.514 17.5648 148.95 17.8775C148.393 18.1826 147.951 18.6097 147.623 19.1589C147.303 19.7081 147.142 20.3411 147.142 21.0581V31H142.269Z" fill="#292522"/>
<path d="M11.4395 39.4337H12.2632L15.0967 46.2371H15.1654L17.9988 39.4337H18.8226V47.2439H18.1514V40.9401H18.0904L15.4552 47.2439H14.8069L12.1717 40.9401H12.1107V47.2439H11.4395V39.4337ZM23.1262 47.3659C22.5796 47.3659 22.1067 47.2388 21.7075 46.9846C21.3084 46.7278 20.9995 46.3731 20.7808 45.9206C20.5647 45.4655 20.4567 44.9418 20.4567 44.3494C20.4567 43.7596 20.5647 43.2358 20.7808 42.7782C20.9995 42.318 21.3007 41.9583 21.6846 41.699C22.0711 41.4371 22.5173 41.3062 23.0232 41.3062C23.341 41.3062 23.6473 41.3647 23.9423 41.4816C24.2372 41.596 24.5016 41.7727 24.7355 42.0117C24.9719 42.2481 25.1588 42.5469 25.2961 42.9079C25.4334 43.2664 25.502 43.6909 25.502 44.1816V44.5172H20.9257V43.9185H24.8079C24.8079 43.5422 24.7317 43.2041 24.5791 42.9041C24.4291 42.6015 24.2194 42.3625 23.9499 42.1871C23.6829 42.0117 23.374 41.924 23.0232 41.924C22.652 41.924 22.3253 42.0231 22.0431 42.2214C21.7609 42.4197 21.5397 42.6816 21.3796 43.007C21.2219 43.3325 21.1418 43.6884 21.1393 44.0748V44.4333C21.1393 44.8986 21.2194 45.3053 21.3796 45.6536C21.5423 45.9994 21.7723 46.2676 22.0698 46.4583C22.3673 46.649 22.7194 46.7443 23.1262 46.7443C23.4033 46.7443 23.6461 46.7011 23.8546 46.6147C24.0656 46.5282 24.2423 46.4125 24.3846 46.2676C24.5296 46.1202 24.6389 45.9587 24.7126 45.7833L25.3571 45.993C25.2681 46.2397 25.1219 46.4672 24.9185 46.6757C24.7177 46.8842 24.466 47.0519 24.1635 47.1791C23.8635 47.3036 23.5177 47.3659 23.1262 47.3659ZM30.9525 43.9986V44.6392H27.5089V43.9986H30.9525ZM27.6767 41.3863V47.2439H26.9979V41.3863H27.6767ZM31.4521 41.3863V47.2439H30.7733V41.3863H31.4521ZM32.4389 42.0269V41.3863H37.0151V42.0269H35.0779V47.2439H34.399V42.0269H32.4389ZM40.4226 47.3659C39.9166 47.3659 39.4692 47.2375 39.0802 46.9808C38.6937 46.724 38.3912 46.3693 38.1726 45.9168C37.9539 45.4617 37.8446 44.9367 37.8446 44.3418C37.8446 43.7418 37.9539 43.2142 38.1726 42.7592C38.3912 42.3015 38.6937 41.9456 39.0802 41.6914C39.4692 41.4346 39.9166 41.3062 40.4226 41.3062C40.9285 41.3062 41.3747 41.4346 41.7611 41.6914C42.1476 41.9481 42.4501 42.3041 42.6687 42.7592C42.8899 43.2142 43.0005 43.7418 43.0005 44.3418C43.0005 44.9367 42.8912 45.4617 42.6726 45.9168C42.4539 46.3693 42.1501 46.724 41.7611 46.9808C41.3747 47.2375 40.9285 47.3659 40.4226 47.3659ZM40.4226 46.7443C40.8293 46.7443 41.1738 46.635 41.456 46.4164C41.7382 46.1977 41.9518 45.9066 42.0967 45.543C42.2442 45.1795 42.3179 44.7791 42.3179 44.3418C42.3179 43.9045 42.2442 43.5028 42.0967 43.1367C41.9518 42.7706 41.7382 42.4769 41.456 42.2558C41.1738 42.0346 40.8293 41.924 40.4226 41.924C40.0183 41.924 39.6738 42.0346 39.3891 42.2558C39.1069 42.4769 38.8921 42.7706 38.7446 43.1367C38.5997 43.5028 38.5272 43.9045 38.5272 44.3418C38.5272 44.7791 38.5997 45.1795 38.7446 45.543C38.8921 45.9066 39.1069 46.1977 39.3891 46.4164C39.6713 46.635 40.0158 46.7443 40.4226 46.7443ZM44.4907 49.4405V41.3863H45.1504V42.5036H45.2305C45.3119 42.3282 45.4237 42.149 45.5661 41.9659C45.7085 41.7803 45.8966 41.624 46.1305 41.4969C46.3669 41.3697 46.6644 41.3062 47.0229 41.3062C47.5059 41.3062 47.928 41.4333 48.289 41.6875C48.6525 41.9392 48.9347 42.2926 49.1356 42.7477C49.339 43.2003 49.4407 43.7278 49.4407 44.3303C49.4407 44.9354 49.339 45.4655 49.1356 45.9206C48.9347 46.3757 48.6525 46.7303 48.289 46.9846C47.928 47.2388 47.5085 47.3659 47.0305 47.3659C46.6771 47.3659 46.3809 47.3024 46.1419 47.1753C45.9055 47.0481 45.7136 46.8918 45.5661 46.7062C45.4212 46.518 45.3093 46.335 45.2305 46.157H45.1695V49.4405H44.4907ZM45.1619 44.3189C45.1619 44.7918 45.2318 45.2113 45.3716 45.5774C45.514 45.9409 45.7174 46.2269 45.9818 46.4354C46.2487 46.6414 46.5716 46.7443 46.9504 46.7443C47.3394 46.7443 47.6674 46.6375 47.9343 46.424C48.2038 46.2079 48.4085 45.9168 48.5483 45.5507C48.6907 45.1846 48.7619 44.774 48.7619 44.3189C48.7619 43.8689 48.6919 43.4634 48.5521 43.1024C48.4148 42.7414 48.2114 42.4553 47.9419 42.2443C47.6725 42.0308 47.3419 41.924 46.9504 41.924C46.5691 41.924 46.2449 42.0269 45.978 42.2329C45.711 42.4363 45.5076 42.7185 45.3678 43.0795C45.2305 43.438 45.1619 43.8511 45.1619 44.3189ZM51.5019 43.6477H53.218C53.8765 43.6477 54.385 43.8079 54.7434 44.1282C55.1019 44.4486 55.2811 44.882 55.2811 45.4286C55.2811 45.7922 55.1998 46.11 55.0371 46.382C54.8769 46.6541 54.643 46.8664 54.3354 47.0189C54.0278 47.1689 53.6553 47.2439 53.218 47.2439H50.9375V41.3863H51.6201V46.6032H53.218C53.6324 46.6032 53.9655 46.5041 54.2172 46.3058C54.4714 46.1075 54.5985 45.8253 54.5985 45.4592C54.5985 45.0854 54.4714 44.7969 54.2172 44.5935C53.9655 44.3901 53.6324 44.2884 53.218 44.2884H51.5019V43.6477ZM56.2689 47.2439V41.3863H56.9477V47.2439H56.2689ZM62.4525 46.2791L65.5453 41.3863H66.3576V47.2439H65.6788V42.3511L62.5975 47.2439H61.7737V41.3863H62.4525V46.2791ZM71.8492 46.2791L74.9419 41.3863H75.7542V47.2439H75.0754V42.3511L71.9941 47.2439H71.1703V41.3863H71.8492V46.2791ZM79.8347 47.3659C79.311 47.3659 78.8547 47.235 78.4657 46.9731C78.0792 46.7113 77.7792 46.3528 77.5657 45.8977C77.3521 45.4426 77.2453 44.924 77.2453 44.3418C77.2453 43.7545 77.3534 43.232 77.5695 42.7744C77.7881 42.3168 78.0907 41.9583 78.4771 41.699C78.8636 41.4371 79.3123 41.3062 79.8233 41.3062C80.2148 41.3062 80.5695 41.3825 80.8873 41.535C81.2051 41.685 81.4669 41.8973 81.6729 42.1719C81.8814 42.4439 82.0123 42.7617 82.0657 43.1253H81.3792C81.308 42.7947 81.1364 42.5125 80.8644 42.2786C80.5949 42.0422 80.2517 41.924 79.8347 41.924C79.461 41.924 79.1305 42.0257 78.8432 42.2291C78.5559 42.4299 78.3309 42.7108 78.1682 43.0719C78.008 43.4303 77.928 43.846 77.928 44.3189C77.928 44.7943 78.0068 45.2151 78.1644 45.5812C78.322 45.9447 78.5432 46.2295 78.828 46.4354C79.1153 46.6414 79.4508 46.7443 79.8347 46.7443C80.0941 46.7443 80.3305 46.696 80.5441 46.5994C80.7602 46.5003 80.9407 46.3604 81.0856 46.1799C81.233 45.9994 81.3322 45.7846 81.383 45.5354H82.0695C82.0186 45.8888 81.8928 46.2041 81.6919 46.4812C81.4936 46.7558 81.2356 46.9719 80.9178 47.1295C80.6025 47.2871 80.2415 47.3659 79.8347 47.3659ZM83.532 47.2439V41.3863H87.9672V47.2439H87.2845V42.0269H84.2146V47.2439H83.532ZM92.041 47.3659C91.5351 47.3659 91.0876 47.2375 90.6986 46.9808C90.3122 46.724 90.0096 46.3693 89.791 45.9168C89.5723 45.4617 89.463 44.9367 89.463 44.3418C89.463 43.7418 89.5723 43.2142 89.791 42.7592C90.0096 42.3015 90.3122 41.9456 90.6986 41.6914C91.0876 41.4346 91.5351 41.3062 92.041 41.3062C92.5469 41.3062 92.9931 41.4346 93.3796 41.6914C93.766 41.9481 94.0685 42.3041 94.2872 42.7592C94.5084 43.2142 94.619 43.7418 94.619 44.3418C94.619 44.9367 94.5096 45.4617 94.291 45.9168C94.0723 46.3693 93.7685 46.724 93.3796 46.9808C92.9931 47.2375 92.5469 47.3659 92.041 47.3659ZM92.041 46.7443C92.4478 46.7443 92.7923 46.635 93.0745 46.4164C93.3567 46.1977 93.5702 45.9066 93.7151 45.543C93.8626 45.1795 93.9363 44.7791 93.9363 44.3418C93.9363 43.9045 93.8626 43.5028 93.7151 43.1367C93.5702 42.7706 93.3567 42.4769 93.0745 42.2558C92.7923 42.0346 92.4478 41.924 92.041 41.924C91.6368 41.924 91.2923 42.0346 91.0075 42.2558C90.7253 42.4769 90.5105 42.7706 90.363 43.1367C90.2181 43.5028 90.1457 43.9045 90.1457 44.3418C90.1457 44.7791 90.2181 45.1795 90.363 45.543C90.5105 45.9066 90.7253 46.1977 91.0075 46.4164C91.2897 46.635 91.6342 46.7443 92.041 46.7443ZM95.5333 47.2439V46.6032H95.7163C95.9248 46.6032 96.0926 46.5651 96.2197 46.4888C96.3494 46.41 96.4498 46.2778 96.521 46.0922C96.5922 45.9066 96.6455 45.6536 96.6811 45.3333C96.7167 45.013 96.7447 44.6113 96.765 44.1282L96.8909 41.3863H100.613V47.2439H99.9303V42.0269H97.5354L97.4248 44.357C97.4019 44.8325 97.3638 45.2507 97.3104 45.6117C97.2595 45.9727 97.1756 46.274 97.0587 46.5155C96.9443 46.757 96.7841 46.9388 96.5782 47.0608C96.3748 47.1829 96.1078 47.2439 95.7773 47.2439H95.5333ZM106.367 43.9986V44.6392H102.923V43.9986H106.367ZM103.091 41.3863V47.2439H102.412V41.3863H103.091ZM106.866 41.3863V47.2439H106.187V41.3863H106.866ZM109.352 46.2791L112.444 41.3863H113.257V47.2439H112.578V42.3511L109.497 47.2439H108.673V41.3863H109.352V46.2791ZM114.229 42.0269V41.3863H118.806V42.0269H116.868V47.2439H116.189V42.0269H114.229ZM122.304 47.3659C121.758 47.3659 121.285 47.2388 120.886 46.9846C120.487 46.7278 120.178 46.3731 119.959 45.9206C119.743 45.4655 119.635 44.9418 119.635 44.3494C119.635 43.7596 119.743 43.2358 119.959 42.7782C120.178 42.318 120.479 41.9583 120.863 41.699C121.249 41.4371 121.696 41.3062 122.201 41.3062C122.519 41.3062 122.826 41.3647 123.121 41.4816C123.415 41.596 123.68 41.7727 123.914 42.0117C124.15 42.2481 124.337 42.5469 124.474 42.9079C124.612 43.2664 124.68 43.6909 124.68 44.1816V44.5172H120.104V43.9185H123.986C123.986 43.5422 123.91 43.2041 123.757 42.9041C123.607 42.6015 123.398 42.3625 123.128 42.1871C122.861 42.0117 122.552 41.924 122.201 41.924C121.83 41.924 121.504 42.0231 121.221 42.2214C120.939 42.4197 120.718 42.6816 120.558 43.007C120.4 43.3325 120.32 43.6884 120.318 44.0748V44.4333C120.318 44.8986 120.398 45.3053 120.558 45.6536C120.721 45.9994 120.951 46.2676 121.248 46.4583C121.546 46.649 121.898 46.7443 122.304 46.7443C122.582 46.7443 122.824 46.7011 123.033 46.6147C123.244 46.5282 123.421 46.4125 123.563 46.2676C123.708 46.1202 123.817 45.9587 123.891 45.7833L124.535 45.993C124.446 46.2397 124.3 46.4672 124.097 46.6757C123.896 46.8842 123.644 47.0519 123.342 47.1791C123.042 47.3036 122.696 47.3659 122.304 47.3659ZM125.6 47.2439V46.6032H125.783C125.992 46.6032 126.16 46.5651 126.287 46.4888C126.416 46.41 126.517 46.2778 126.588 46.0922C126.659 45.9066 126.713 45.6536 126.748 45.3333C126.784 45.013 126.812 44.6113 126.832 44.1282L126.958 41.3863H130.68V47.2439H129.997V42.0269H127.602L127.492 44.357C127.469 44.8325 127.431 45.2507 127.377 45.6117C127.327 45.9727 127.243 46.274 127.126 46.5155C127.011 46.757 126.851 46.9388 126.645 47.0608C126.442 47.1829 126.175 47.2439 125.844 47.2439H125.6ZM133.158 46.2791L136.251 41.3863H137.063V47.2439H136.384V42.3511L133.303 47.2439H132.479V41.3863H133.158V46.2791Z" fill="#292522"/>
</svg>
