<svg width="17" height="15" viewBox="0 0 17 15" fill="none" xmlns="http://www.w3.org/2000/svg">
<path d="M1.59992 6.57841C5.89487 4.70717 8.75885 3.47353 10.1919 2.87749C14.2834 1.1757 15.1335 0.880077 15.6877 0.870212C15.8095 0.868169 16.082 0.898373 16.2586 1.04161C16.4076 1.16255 16.4486 1.32593 16.4683 1.44059C16.4879 1.55526 16.5123 1.81648 16.4929 2.02058C16.2712 4.35021 15.3118 10.0036 14.8237 12.6128C14.6172 13.7169 14.2105 14.0871 13.8168 14.1233C12.9613 14.202 12.3116 13.5579 11.4829 13.0147C10.1862 12.1647 9.45369 11.6356 8.19503 10.8061C6.74042 9.84756 7.68338 9.32072 8.51236 8.45971C8.72931 8.23438 12.499 4.80558 12.5719 4.49453C12.5811 4.45563 12.5895 4.31062 12.5034 4.23405C12.4172 4.15749 12.2901 4.18367 12.1983 4.20449C12.0683 4.23401 9.9968 5.60318 5.98389 8.31201C5.39591 8.71577 4.86333 8.91249 4.38616 8.90218C3.86012 8.89082 2.84822 8.60475 2.09598 8.36023C1.17333 8.06031 0.440022 7.90174 0.503876 7.39239C0.537136 7.12708 0.902482 6.85576 1.59992 6.57841Z" fill="#292522"/>
</svg>
