<svg width="1280" height="210" viewBox="0 0 1280 210" fill="none" xmlns="http://www.w3.org/2000/svg">
<path d="M96.7873 148.538V61.872H138.647V212.801H98.4577V185.386H96.8856C93.4792 194.23 87.8128 201.337 79.8864 206.709C72.0255 212.081 62.4286 214.766 51.0958 214.766C41.0077 214.766 32.1314 212.474 24.467 207.888C16.8027 203.303 10.8087 196.785 6.48524 188.334C2.22726 179.884 0.0655074 169.763 0 157.971V61.872H41.8593V150.504C41.9248 159.413 44.3158 166.455 49.0324 171.63C53.7489 176.805 60.0704 179.392 67.9968 179.392C73.0408 179.392 77.7574 178.246 82.1464 175.953C86.5354 173.595 90.0728 170.123 92.7586 165.538C95.5099 160.952 96.8528 155.286 96.7873 148.538Z" fill="white"/>
<path d="M172.129 269.4V61.872H213.399V87.2234H215.266C217.1 83.1619 219.753 79.035 223.225 74.8425C226.762 70.5845 231.348 67.0471 236.982 64.2303C242.681 61.3479 249.755 59.9068 258.206 59.9068C269.211 59.9068 279.365 62.7891 288.667 68.5538C297.969 74.2529 305.404 82.8671 310.972 94.3965C316.54 105.86 319.324 120.239 319.324 137.533C319.324 154.369 316.606 168.584 311.169 180.179C305.797 191.708 298.46 200.453 289.158 206.414C279.922 212.31 269.571 215.258 258.108 215.258C249.985 215.258 243.074 213.915 237.375 211.229C231.741 208.543 227.123 205.17 223.52 201.108C219.917 196.981 217.165 192.821 215.266 188.629H213.988V269.4H172.129ZM213.104 137.337C213.104 146.311 214.349 154.139 216.838 160.821C219.327 167.503 222.93 172.711 227.647 176.445C232.363 180.113 238.095 181.947 244.842 181.947C251.655 181.947 257.42 180.08 262.136 176.346C266.853 172.547 270.423 167.306 272.847 160.625C275.336 153.877 276.581 146.115 276.581 137.337C276.581 128.624 275.369 120.96 272.945 114.343C270.521 107.727 266.951 102.552 262.235 98.8182C257.518 95.0843 251.721 93.2173 244.842 93.2173C238.03 93.2173 232.265 95.0188 227.548 98.6217C222.897 102.225 219.327 107.334 216.838 113.95C214.349 120.567 213.104 128.362 213.104 137.337Z" fill="white"/>
<path d="M347.231 212.801V61.872H387.125V88.5008H388.893C392.038 79.6573 397.278 72.6807 404.615 67.5711C411.952 62.4616 420.73 59.9068 430.949 59.9068C441.299 59.9068 450.11 62.4943 457.381 67.6694C464.653 72.779 469.5 79.7228 471.924 88.5008H473.496C476.575 79.8538 482.143 72.9428 490.201 67.7677C498.324 62.5271 507.92 59.9068 518.991 59.9068C533.075 59.9068 544.506 64.394 553.284 73.3686C562.128 82.2776 566.55 94.9205 566.55 111.297V212.801H524.789V119.551C524.789 111.166 522.561 104.878 518.107 100.685C513.652 96.4927 508.084 94.3965 501.402 94.3965C493.804 94.3965 487.875 96.8202 483.617 101.668C479.359 106.45 477.23 112.771 477.23 120.632V212.801H436.648V118.667C436.648 111.265 434.519 105.369 430.261 100.98C426.069 96.591 420.533 94.3965 413.655 94.3965C409.004 94.3965 404.812 95.5756 401.078 97.9339C397.409 100.227 394.494 103.469 392.333 107.662C390.171 111.789 389.09 116.636 389.09 122.204V212.801H347.231Z" fill="white"/>
<path d="M599.615 212.801V61.872H641.474V212.801H599.615ZM620.642 42.4163C614.419 42.4163 609.08 40.3528 604.626 36.2258C600.237 32.0333 598.042 27.022 598.042 21.1918C598.042 15.4272 600.237 10.4814 604.626 6.3544C609.08 2.16192 614.419 0.0656738 620.642 0.0656738C626.866 0.0656738 632.172 2.16192 636.561 6.3544C641.015 10.4814 643.243 15.4272 643.243 21.1918C643.243 27.022 641.015 32.0333 636.561 36.2258C632.172 40.3528 626.866 42.4163 620.642 42.4163Z" fill="white"/>
<path d="M716.865 125.545V212.801H675.005V61.872H714.9V88.5008H716.668C720.009 79.7228 725.61 72.779 733.471 67.6694C741.332 62.4943 750.863 59.9068 762.065 59.9068C772.546 59.9068 781.684 62.1995 789.48 66.785C797.275 71.3706 803.335 77.9213 807.658 86.4373C811.982 94.8878 814.143 104.976 814.143 116.702V212.801H772.284V124.17C772.35 114.933 769.991 107.727 765.209 102.552C760.427 97.3115 753.844 94.6912 745.459 94.6912C739.825 94.6912 734.847 95.9031 730.523 98.3269C726.265 100.751 722.924 104.288 720.5 108.939C718.142 113.525 716.93 119.06 716.865 125.545Z" fill="white"/>
<path d="M902.75 215.258C891.287 215.258 880.904 212.31 871.602 206.414C862.365 200.453 855.028 191.708 849.591 180.179C844.22 168.584 841.534 154.369 841.534 137.533C841.534 120.239 844.318 105.86 849.886 94.3965C855.454 82.8671 862.856 74.2529 872.093 68.5538C881.395 62.7891 891.581 59.9068 902.652 59.9068C911.103 59.9068 918.145 61.3479 923.778 64.2303C929.478 67.0471 934.063 70.5845 937.535 74.8425C941.072 79.035 943.758 83.1619 945.592 87.2234H946.87V11.5622H988.631V212.801H947.361V188.629H945.592C943.627 192.821 940.843 196.981 937.24 201.108C933.703 205.17 929.084 208.543 923.385 211.229C917.752 213.915 910.873 215.258 902.75 215.258ZM916.016 181.947C922.763 181.947 928.462 180.113 933.113 176.445C937.83 172.711 941.433 167.503 943.922 160.821C946.477 154.139 947.754 146.311 947.754 137.337C947.754 128.362 946.509 120.567 944.02 113.95C941.531 107.334 937.928 102.225 933.211 98.6217C928.495 95.0188 922.763 93.2173 916.016 93.2173C909.137 93.2173 903.34 95.0843 898.623 98.8182C893.907 102.552 890.337 107.727 887.913 114.343C885.489 120.96 884.277 128.624 884.277 137.337C884.277 146.115 885.489 153.877 887.913 160.625C890.402 167.306 893.972 172.547 898.623 176.346C903.34 180.08 909.137 181.947 916.016 181.947Z" fill="white"/>
<path d="M1091.83 215.749C1076.3 215.749 1062.94 212.605 1051.74 206.316C1040.6 199.962 1032.02 190.987 1025.99 179.392C1019.97 167.732 1016.95 153.943 1016.95 138.024C1016.95 122.499 1019.97 108.874 1025.99 97.1478C1032.02 85.4219 1040.5 76.2836 1051.44 69.7329C1062.45 63.1821 1075.35 59.9068 1090.16 59.9068C1100.12 59.9068 1109.39 61.5117 1117.97 64.7216C1126.61 67.8659 1134.15 72.6152 1140.57 78.9695C1147.05 85.3237 1152.1 93.3156 1155.7 102.945C1159.3 112.509 1161.1 123.711 1161.1 136.551V148.047H1033.66V122.106H1121.7C1121.7 116.079 1120.39 110.741 1117.77 106.09C1115.15 101.439 1111.51 97.8028 1106.86 95.1825C1102.28 92.4967 1096.94 91.1538 1090.85 91.1538C1084.49 91.1538 1078.86 92.6278 1073.95 95.5756C1069.1 98.4579 1065.3 102.356 1062.55 107.269C1059.8 112.116 1058.39 117.521 1058.32 123.482V148.145C1058.32 155.613 1059.7 162.066 1062.45 167.503C1065.27 172.94 1069.23 177.132 1074.34 180.08C1079.45 183.028 1085.51 184.502 1092.52 184.502C1097.17 184.502 1101.43 183.847 1105.29 182.537C1109.16 181.227 1112.46 179.261 1115.22 176.641C1117.97 174.021 1120.06 170.811 1121.5 167.012L1160.22 169.566C1158.25 178.868 1154.23 186.991 1148.13 193.935C1142.11 200.813 1134.31 206.185 1124.75 210.05C1115.25 213.849 1104.28 215.749 1091.83 215.749Z" fill="white"/>
<path d="M1188.42 212.801V61.872H1229V88.206H1230.57C1233.33 78.8384 1237.94 71.7636 1244.43 66.9816C1250.91 62.134 1258.38 59.7102 1266.83 59.7102C1268.93 59.7102 1271.19 59.8413 1273.61 60.1033C1276.04 60.3653 1278.17 60.7256 1280 61.1842V98.3269C1278.03 97.7373 1275.32 97.2133 1271.84 96.7547C1268.37 96.2962 1265.2 96.0669 1262.31 96.0669C1256.16 96.0669 1250.65 97.4098 1245.81 100.096C1241.02 102.716 1237.22 106.384 1234.41 111.101C1231.66 115.817 1230.28 121.255 1230.28 127.412V212.801H1188.42Z" fill="white"/>
</svg>
